<svg xmlns="http://www.w3.org/2000/svg" xmlns:xlink="http://www.w3.org/1999/xlink" width="500" zoomAndPan="magnify" viewBox="0 0 375 374.999991" height="500" preserveAspectRatio="xMidYMid meet" version="1.0"><defs><g/></defs><g fill="#000000" fill-opacity="1"><g transform="translate(6.915698, 236.080457)"><g><path d="M 63.578125 -86.175781 C 53.859375 -86.175781 45.835938 -82.796875 39.496094 -77.09375 L 39.496094 -84.277344 L 12.460938 -84.488281 L 12.460938 50.691406 L 39.496094 50.902344 L 39.496094 -7.394531 C 45.835938 -1.691406 53.859375 1.691406 63.578125 1.691406 C 86.8125 1.691406 105.1875 -17.742188 105.1875 -42.242188 C 105.1875 -66.746094 86.8125 -86.175781 63.578125 -86.175781 Z M 58.296875 -22.179688 C 47.101562 -22.179688 38.230469 -31.050781 38.230469 -42.242188 C 38.230469 -53.4375 47.101562 -62.308594 58.296875 -62.308594 C 69.492188 -62.308594 78.363281 -53.4375 78.363281 -42.242188 C 78.363281 -31.050781 69.492188 -22.179688 58.296875 -22.179688 Z M 58.296875 -22.179688 "/></g></g></g><g fill="#000000" fill-opacity="1"><g transform="translate(110.201888, 236.080457)"><g><path d="M 12.460938 0 L 39.496094 0 L 39.496094 -144.683594 L 12.460938 -144.683594 Z M 12.460938 0 "/></g></g></g><g fill="#000000" fill-opacity="1"><g transform="translate(153.713009, 236.080457)"><g><path d="M 106.664062 -21.96875 C 103.074219 -21.96875 99.273438 -23.234375 99.273438 -30.203125 L 99.273438 -84.488281 L 72.449219 -84.488281 L 72.449219 -77.09375 C 66.113281 -82.796875 58.085938 -86.175781 48.371094 -86.175781 C 24.925781 -86.175781 6.546875 -66.746094 6.546875 -42.242188 C 6.546875 -17.742188 24.925781 1.691406 48.371094 1.691406 C 60.621094 1.691406 70.546875 -3.800781 77.304688 -12.671875 C 82.585938 -4.011719 91.878906 1.691406 103.285156 1.691406 C 106.03125 1.691406 108.566406 0.84375 110.46875 0 L 110.46875 -21.96875 Z M 53.648438 -22.179688 C 42.457031 -22.179688 33.582031 -31.050781 33.582031 -42.242188 C 33.582031 -53.4375 42.457031 -62.308594 53.648438 -62.308594 C 64.632812 -62.308594 73.714844 -53.4375 73.714844 -42.242188 C 73.714844 -31.050781 64.632812 -22.179688 53.648438 -22.179688 Z M 53.648438 -22.179688 "/></g></g></g><g fill="#000000" fill-opacity="1"><g transform="translate(258.900159, 236.080457)"><g><path d="M 105.398438 0 L 65.265625 -46.257812 L 102.230469 -84.488281 L 69.914062 -84.488281 L 40.554688 -54.070312 L 40.554688 -144.683594 L 13.730469 -144.683594 L 13.730469 0 L 40.554688 0 L 40.554688 -38.863281 L 70.335938 0 Z M 105.398438 0 "/></g></g></g></svg>